<?xml version="1.0" encoding="UTF-8" standalone="no"?>
<svg
   width="350"
   height="350"
   xml:space="preserve"
   overflow="hidden"
   version="1.1"
   id="svg49"
   sodipodi:docname="SmartCacheV1.svg"
   inkscape:version="1.2.2 (732a01da63, 2022-12-09)"
   inkscape:export-filename="SmartCacheV1.png"
   inkscape:export-xdpi="96"
   inkscape:export-ydpi="96"
   xmlns:inkscape="http://www.inkscape.org/namespaces/inkscape"
   xmlns:sodipodi="http://sodipodi.sourceforge.net/DTD/sodipodi-0.dtd"
   xmlns="http://www.w3.org/2000/svg"
   xmlns:svg="http://www.w3.org/2000/svg"><sodipodi:namedview
     id="namedview51"
     pagecolor="#ffffff"
     bordercolor="#000000"
     borderopacity="0.25"
     inkscape:showpageshadow="2"
     inkscape:pageopacity="0.0"
     inkscape:pagecheckerboard="0"
     inkscape:deskcolor="#d1d1d1"
     showgrid="false"
     inkscape:zoom="0.60512821"
     inkscape:cx="-197.47881"
     inkscape:cy="209.87288"
     inkscape:window-width="1475"
     inkscape:window-height="931"
     inkscape:window-x="59"
     inkscape:window-y="210"
     inkscape:window-maximized="0"
     inkscape:current-layer="svg49" /><defs
     id="defs11"><clipPath
       id="clip0"><path
         d="m 2317.38,1033.29 263.66,99.42 47.38,-125.66 -263.66,-99.41 z"
         fill-rule="evenodd"
         clip-rule="evenodd"
         id="path2" /></clipPath><clipPath
       id="clip1"><path
         d="m 2317.38,1033.29 263.66,99.42 47.38,-125.66 -263.66,-99.41 z"
         fill-rule="evenodd"
         clip-rule="evenodd"
         id="path5" /></clipPath><clipPath
       id="clip2"><path
         d="m 2317.38,1033.29 263.66,99.42 47.38,-125.66 -263.66,-99.41 z"
         fill-rule="evenodd"
         clip-rule="evenodd"
         id="path8" /></clipPath></defs><g
     transform="translate(-2283,-717)"
     id="g47"><path
       d="m 2346.5,776.5 c -8.28,0 -15,6.716 -15,15 v 20 c 0,8.284 6.72,15 15,15 h 20 c 8.28,0 15,-6.716 15,-15 v -20 c 0,-8.284 -6.72,-15 -15,-15 z m 25,15 v 20 c 0,2.762 -2.24,5 -5,5 h -20 c -2.76,0 -5,-2.238 -5,-5 v -20 c 0,-2.761 2.24,-5 5,-5 h 20 c 2.76,0 5,2.239 5,5 z"
       stroke="#ffffff"
       stroke-width="9.16667"
       stroke-miterlimit="8"
       fill="#e97132"
       fill-rule="evenodd"
       id="path13" /><path
       d="m 2415.81,841 h 49.38 c 8.18,0 14.81,-6.631 14.81,-14.812 V 776.813 C 2480,768.632 2473.37,762 2465.19,762 h -49.38 c -8.18,0 -14.81,6.632 -14.81,14.813 v 49.375 c 0,8.181 6.63,14.812 14.81,14.812 z m -4.93,-64.187 c 0,-2.727 2.21,-4.938 4.93,-4.938 h 49.38 c 2.72,0 4.94,2.211 4.94,4.938 v 49.375 c 0,2.727 -2.22,4.937 -4.94,4.937 h -49.38 c -2.72,0 -4.93,-2.21 -4.93,-4.937 z"
       fill-rule="evenodd"
       id="path15" /><path
       d="m 2514.86,856 h 79.28 c 8.21,0 14.86,-6.654 14.86,-14.863 v -79.273 c 0,-8.21 -6.65,-14.864 -14.86,-14.864 h -79.28 c -8.21,0 -14.86,6.654 -14.86,14.864 v 79.273 c 0,8.209 6.65,14.863 14.86,14.863 z m -4.95,-94.136 c 0,-2.737 2.22,-4.955 4.95,-4.955 h 79.28 c 2.73,0 4.95,2.218 4.95,4.955 v 79.273 c 0,2.736 -2.22,4.954 -4.95,4.954 h -79.28 c -2.73,0 -4.95,-2.218 -4.95,-4.954 z"
       fill-rule="evenodd"
       id="path17" /><path
       d="m 2346.5,908.5 c -8.28,0 -15,6.716 -15,15 v 20 c 0,8.284 6.72,15 15,15 h 20 c 8.28,0 15,-6.716 15,-15 v -20 c 0,-8.284 -6.72,-15 -15,-15 z m 25,15 v 20 c 0,2.762 -2.24,5 -5,5 h -20 c -2.76,0 -5,-2.238 -5,-5 v -20 c 0,-2.761 2.24,-5 5,-5 h 20 c 2.76,0 5,2.239 5,5 z"
       stroke="#ffffff"
       stroke-width="9.16667"
       stroke-miterlimit="8"
       fill="#e97132"
       fill-rule="evenodd"
       id="path19" /><path
       d="m 2415.81,972 h 49.38 c 8.18,0 14.81,-6.631 14.81,-14.812 V 907.813 C 2480,899.632 2473.37,893 2465.19,893 h -49.38 c -8.18,0 -14.81,6.632 -14.81,14.813 v 49.375 c 0,8.181 6.63,14.812 14.81,14.812 z m -4.93,-64.187 c 0,-2.727 2.21,-4.938 4.93,-4.938 h 49.38 c 2.72,0 4.94,2.211 4.94,4.938 v 49.375 c 0,2.727 -2.22,4.937 -4.94,4.937 h -49.38 c -2.72,0 -4.93,-2.21 -4.93,-4.937 z"
       fill-rule="evenodd"
       id="path21" /><path
       d="m 2514.86,987 h 79.28 c 8.21,0 14.86,-6.654 14.86,-14.863 v -79.273 c 0,-8.21 -6.65,-14.864 -14.86,-14.864 h -79.28 c -8.21,0 -14.86,6.654 -14.86,14.864 v 79.273 c 0,8.209 6.65,14.863 14.86,14.863 z m -4.95,-94.136 c 0,-2.737 2.22,-4.955 4.95,-4.955 h 79.28 c 2.73,0 4.95,2.218 4.95,4.955 v 79.273 c 0,2.736 -2.22,4.954 -4.95,4.954 h -79.28 c -2.73,0 -4.95,-2.218 -4.95,-4.954 z"
       fill-rule="evenodd"
       id="path23" /><g
       clip-path="url(#clip0)"
       id="g31"><g
         clip-path="url(#clip1)"
         id="g29"><g
           clip-path="url(#clip2)"
           id="g27"><path
             d="M 11.1907,60.1502 51.1976,26.578 v 19.5838 c 61.4094,0.5595 71.9004,62.9482 71.9004,62.9482 0,0 -22.801,-33.1529 -71.9004,-33.5726 v 18.185 z"
             fill="#0d3512"
             transform="matrix(1.96336,0.740305,0.352813,-0.935694,2317.38,1033.29)"
             id="path25" /></g></g></g><path
       d="m 2483.95,868.48 -153.54,-0.472 0.02,-6.875 153.54,0.472 z m -148.99,9.855 -27.46,-13.835 27.54,-13.665 z"
       fill="#156082"
       id="path33" /><rect
       x="2331.5"
       y="779.5"
       width="49.999802"
       height="44"
       stroke="#ffffff"
       stroke-width="4.58333"
       stroke-linecap="round"
       stroke-linejoin="round"
       stroke-miterlimit="10"
       fill="#ffc000"
       id="rect35" /><rect
       x="2331.5"
       y="908.5"
       width="49.999802"
       height="42.999901"
       stroke="#ffffff"
       stroke-width="4.58333"
       stroke-linecap="round"
       stroke-linejoin="round"
       stroke-miterlimit="10"
       fill="#ffc000"
       id="rect37" /><rect
       x="2401.5"
       y="761.5"
       width="79"
       height="79.000099"
       stroke="#ffffff"
       stroke-width="4.58333"
       stroke-linecap="round"
       stroke-linejoin="round"
       stroke-miterlimit="10"
       fill="#3b7d23"
       id="rect39" /><rect
       x="2401.5"
       y="892.5"
       width="79"
       height="80.000099"
       stroke="#ffffff"
       stroke-width="4.58333"
       stroke-linecap="round"
       stroke-linejoin="round"
       stroke-miterlimit="10"
       fill="#3b7d23"
       id="rect41" /><rect
       x="2500.5"
       y="745.5"
       width="109"
       height="109"
       stroke="#ffffff"
       stroke-width="4.58333"
       stroke-linecap="round"
       stroke-linejoin="round"
       stroke-miterlimit="10"
       fill="#0b76a0"
       id="rect43" /><rect
       x="2500.5"
       y="879.5"
       width="109"
       height="109"
       stroke="#ffffff"
       stroke-width="4.58333"
       stroke-linecap="round"
       stroke-linejoin="round"
       stroke-miterlimit="10"
       fill="#0b76a0"
       id="rect45" /></g></svg>
