<?xml version="1.0" encoding="UTF-8" standalone="no"?>
<svg
   viewBox="0 0 60 60"
   x="0px"
   y="0px"
   version="1.1"
   id="svg10"
   sodipodi:docname="Diginsight.SmartCache.svg"
   width="60"
   height="60"
   inkscape:export-filename="Diginsight.SmartCache.png"
   inkscape:export-xdpi="300"
   inkscape:export-ydpi="300"
   inkscape:version="1.3.2 (091e20e, 2023-11-25, custom)"
   xmlns:inkscape="http://www.inkscape.org/namespaces/inkscape"
   xmlns:sodipodi="http://sodipodi.sourceforge.net/DTD/sodipodi-0.dtd"
   xmlns="http://www.w3.org/2000/svg"
   xmlns:svg="http://www.w3.org/2000/svg">
  <defs
     id="defs10" />
  <sodipodi:namedview
     id="namedview10"
     pagecolor="#ffffff"
     bordercolor="#000000"
     borderopacity="0.25"
     inkscape:showpageshadow="2"
     inkscape:pageopacity="0.0"
     inkscape:pagecheckerboard="0"
     inkscape:deskcolor="#d1d1d1"
     inkscape:export-bgcolor="#ffffffff"
     inkscape:zoom="8.0044488"
     inkscape:cx="22.487495"
     inkscape:cy="17.302878"
     inkscape:window-width="1920"
     inkscape:window-height="1027"
     inkscape:window-x="2488"
     inkscape:window-y="575"
     inkscape:window-maximized="1"
     inkscape:current-layer="svg10" />
  <path
     d="m 34,37.271 v 5.661 C 34.515,43.691 38.86,45 46,45 53.14,45 57.485,43.691 58,42.932 V 37.271 C 54.393,38.937 47.073,39 46,39 44.927,39 37.607,38.937 34,37.271 Z m 7,5.5 a 0.8,0.8 0 0 1 -0.1,-0.005 c -0.717,-0.069 -1.4,-0.153 -2.05,-0.248 a 1.0002131,1.0002131 0 0 1 0.292,-1.979 q 0.925,0.138 1.95,0.236 a 1.0011275,1.0011275 0 0 1 -0.095,2 z m 9.9,-2 q 1.024,-0.1 1.95,-0.236 a 1.0002131,1.0002131 0 0 1 0.292,1.979 c -0.647,0.095 -1.333,0.179 -2.05,0.248 a 0.8,0.8 0 0 1 -0.1,0.005 1.0011275,1.0011275 0 0 1 -0.095,-2 z m -2.9,1.2 a 1,1 0 0 1 -0.982,1.017 Q 46.514,43 46,43 45.486,43 44.982,42.991 A 1,1 0 0 1 44,41.974 1.026,1.026 0 0 1 45.018,40.991 c 0.648,0.012 1.316,0.012 1.964,0 A 1.026,1.026 0 0 1 48,41.974 Z"
     id="path1"
     style="fill:#aaaa00;fill-opacity:1;stroke:none" />
  <path
     d="M 58,29.271 C 54.393,30.937 47.073,31 46,31 44.927,31 37.607,30.937 34,29.271 v 5.652 C 34.485,35.681 38.831,37 46,37 c 7.169,0 11.515,-1.319 12,-2.077 z m -17,5.5 a 0.8,0.8 0 0 1 -0.1,-0.005 c -0.717,-0.069 -1.4,-0.153 -2.05,-0.248 a 1.0002131,1.0002131 0 0 1 0.292,-1.979 q 0.925,0.138 1.95,0.236 a 1.0011275,1.0011275 0 0 1 -0.095,2 z m 6.017,0.22 Q 46.514,35 46,35 45.486,35 44.982,34.991 A 1,1 0 0 1 44,33.974 1.046,1.046 0 0 1 45.018,32.991 c 0.648,0.012 1.316,0.012 1.964,0 H 47 a 1.0000405,1.0000405 0 0 1 0.018,2 z m 6.128,-0.473 c -0.647,0.095 -1.333,0.179 -2.05,0.248 a 0.8,0.8 0 0 1 -0.1,0.005 1.0011275,1.0011275 0 0 1 -0.095,-2 q 1.024,-0.1 1.95,-0.236 a 1.0002131,1.0002131 0 0 1 0.292,1.979 z"
     id="path2"
     style="fill:#005500;fill-opacity:1;stroke:none" />
  <path
     d="M 58,21.271 C 54.393,22.937 47.073,23 46,23 44.927,23 37.607,22.937 34,21.271 v 5.652 C 34.485,27.681 38.831,29 46,29 c 7.169,0 11.515,-1.319 12,-2.077 z m -17,5.5 a 0.8,0.8 0 0 1 -0.1,-0.005 c -0.717,-0.069 -1.4,-0.153 -2.05,-0.248 a 1.0002131,1.0002131 0 0 1 0.292,-1.979 q 0.925,0.138 1.95,0.236 a 1.0011275,1.0011275 0 0 1 -0.095,2 z m 6.017,0.22 Q 46.514,27 46,27 45.486,27 44.982,26.991 a 1.000162,1.000162 0 0 1 0.036,-2 c 0.648,0.012 1.316,0.012 1.964,0 a 1.000162,1.000162 0 0 1 0.036,2 z m 6.128,-0.473 c -0.647,0.095 -1.333,0.179 -2.05,0.248 a 0.8,0.8 0 0 1 -0.1,0.005 1.0011275,1.0011275 0 0 1 -0.095,-2 q 1.024,-0.1 1.95,-0.236 a 1.0002131,1.0002131 0 0 1 0.292,1.979 z"
     id="path3"
     style="fill:#0033aa;fill-opacity:1;stroke:none" />
  <ellipse
     cx="46"
     cy="19"
     rx="11.945"
     ry="2"
     id="ellipse3"
     style="fill:#0033aa;fill-opacity:1;stroke:none" />
  <path
     d="M 22.262,43.793 14,47.312 v 2.175 l 9.049,-3.854 a 1,1 0 0 1 1.381,1.067 0.948,0.948 0 0 0 0.6,1.023 0.974,0.974 0 0 0 1.3,-0.54 l 1.591,-3.944 A 0.971,0.971 0 0 0 27.379,41.951 L 23.436,40.36 a 0.987,0.987 0 0 0 -0.764,0 1,1 0 0 0 -0.216,1.7 1,1 0 0 1 -0.194,1.73 z"
     id="path4"
     style="fill:#aaaa00;fill-opacity:1;stroke:none" />
  <path
     d="m 9,53 v 5 h 3 V 44 H 2 v 7 h 5 a 2,2 0 0 1 2,2 z"
     id="path5"
     style="fill:#aaaa00;fill-opacity:1;stroke:none" />
  <polygon
     points="7,53 3.414,53 7,56.586 "
     id="polygon5"
     style="fill:#aaaa00;fill-opacity:1;stroke:none" />
  <path
     d="m 9,32 v 5 h 3 V 23 H 2 v 7 h 5 a 2,2 0 0 1 2,2 z"
     id="path6"
     style="fill:#005500;fill-opacity:1;stroke:none" />
  <path
     d="m 9,11 v 5 h 3 V 2 H 2 v 7 h 5 a 2,2 0 0 1 2,2 z"
     id="path7"
     style="fill:#0033aa;fill-opacity:1;stroke:none" />
  <polygon
     points="7,32 3.414,32 7,35.586 "
     id="polygon7"
     style="fill:#005500;fill-opacity:1;stroke:none" />
  <path
     d="M 23.049,14.367 14,10.513 v 2.175 l 8.262,3.519 a 1,1 0 0 1 0.194,1.731 0.948,0.948 0 0 0 -0.313,1.143 0.968,0.968 0 0 0 0.527,0.555 0.98,0.98 0 0 0 0.759,0.007 l 3.947,-1.593 a 0.971,0.971 0 0 0 0.548,-1.286 l -1.592,-3.943 a 0.971,0.971 0 0 0 -1.281,-0.55 0.953,0.953 0 0 0 -0.621,1.029 1,1 0 0 1 -1.381,1.067 z"
     id="path8"
     style="fill:#0033aa;fill-opacity:1;stroke:none" />
  <polygon
     points="7,11 3.414,11 7,14.586 "
     id="polygon8"
     style="fill:#0033aa;fill-opacity:1;stroke:none" />
  <path
     d="m 14,31 h 8.28 a 1,1 0 0 1 0.856,1.518 0.956,0.956 0 0 0 0.156,1.18 1,1 0 0 0 1.412,0 l 3,-3 a 0.972,0.972 0 0 0 0,-1.4 l -3,-3 a 0.994,0.994 0 0 0 -1.4,0 0.959,0.959 0 0 0 -0.166,1.189 A 1,1 0 0 1 22.28,29 H 14 Z"
     id="path9"
     style="fill:#005500;fill-opacity:1;stroke:none" />
</svg>
